<?xml version="1.0" encoding="UTF-8"?>
<svg id="Layer_1" xmlns="http://www.w3.org/2000/svg" version="1.1" viewBox="0 0 288 144">
  <!-- Generator: Adobe Illustrator 29.8.3, SVG Export Plug-In . SVG Version: 2.1.1 Build 3)  -->
  <defs>
    <style>
      .st0 {
        fill: #41645b;
      }
    </style>
  </defs>
  <path class="st0" d="M259.81,96.89c-9.99,25.79-35.03,44.09-64.35,44.09h-98.28c-31.12,0-57.42-20.59-66.02-48.9-1.94-6.35-2.97-13.1-2.97-20.08s1.05-13.8,3-20.18c.36-1.19.76-2.37,1.19-3.54,3.54.74,11.72,6.09,14.17,7.1,25.56,10.61,56.61,7.03,83.66,9.4,13.15,1.16,27.09,6.87,40.12,5.75,8.27-.72,12.58-6.37,2.04-7.82-4.13-.57-9.06-.33-13.35-.97-.63-.09-2.15-.32-1.95-1.25,2.56.21,4.93-.63,7.47-.75,6.23-.33,23.06,2.25,27.27-1.36,1.41-1.21,1.22-2.44.25-3.89-4.14-6.15-27.4.95-34.28-2.94.82-1.19,1.95-1.03,3.18-1.12,7.62-.55,32.09.37,37.18-3.62,2.52-1.97.6-5.65-2.06-5.65h-31.14l24.28-7.56c5.35-4.39,2.54-8.02-3.81-7.39-8.02.78-22.37,7.08-28.71,7.08-2.64,0-8.71.52-10.74,0-.25-.06-1.25-1.16-1.07-1.42,3.23-1.66,15.1-7.34,11.52-11.89-3.1-3.94-12.4.98-16.08,2.67-9.61,4.4-16.4,10.97-27.37,12.71-18.31,2.9-43.7-3.47-61.5-15C63.62,9.56,79.64,3.02,97.18,3.02h98.28c27.48,0,51.21,16.08,62.3,39.33-5.43,12.71-14.69,22.71-26.6,30.31-16.02,10.22-42.31,22.57-61.41,18.43-8.03-1.74-16.05-8.03-23.41-11.65-4.34-2.14-10-6.03-14.7-2.5-6.62,4.96,8.22,10.37,11.61,12.72.62.44,1.32-.12.94,1.6-11.16,1.81-21.86-3.24-32.78-4.8-4.51-.65-11.49-2.7-14.38,1.73-1.06,3.74,6.13,5.69,8.82,6.68,3.67,1.35,7.53,2.02,11.27,3.05.74.21,2.17.18,2,1.21-7.23.12-15.21-.15-22.36.91-3.81.56-9.33,3.68-4.38,6.87,5.24,3.37,18.3,3.21,24.59,3.69l-18.58,3.24c-1.92,1.08-2.26,4.1-.25,5.19,5.67,3.07,32.45-1.19,33.85-.23.29.2.96.91.72,1.08-4.11.55-19.34,1.19-21.17,5-.63,1.31,1.54,2.8,2.55,3.24,7.33,3.3,39.89-3.17,49.76-4.65,27.6-4.13,63.47-9.7,88.42-22.54,1.21-.63,6.07-4.14,7.53-4.05Z"/>
</svg>